<svg width="106" height="37" viewBox="0 0 106 37" fill="none" xmlns="http://www.w3.org/2000/svg">
<path d="M16.3663 22.9718C16.2304 22.0403 15.5269 21.5908 14.845 21.1331C14.1523 20.6673 13.4351 20.2287 12.9217 19.5544C12.1937 18.6013 11.9138 17.5451 12.4191 16.4105C13.1417 14.7885 15.3639 14.3309 16.801 15.5359C17.2383 15.9014 17.5154 15.9691 18.0452 15.7227C19.1942 15.1838 20.4031 15.5142 21.2751 16.4999C22.4378 17.8132 22.7394 19.3459 22.2368 20.9896C21.4381 23.5892 19.7321 25.3818 17.0889 26.1373C15.2987 26.6491 13.5356 26.3701 11.903 25.4631C9.26511 23.9954 7.5374 21.8182 7.01044 18.8341C6.2443 14.4987 8.05904 10.426 12.2995 8.46012C16.4912 6.51587 20.5471 6.97076 24.2091 9.79781C26.3958 11.4849 27.5585 13.8461 27.7216 16.5892C28.0068 21.3822 25.7928 24.8376 21.6935 27.188C20.3108 27.9814 18.7759 28.3632 17.2438 28.7477C16.3201 28.9806 15.3938 29.2027 14.5081 29.5655C14.2039 29.6901 13.916 29.8444 13.6551 30.0448C13.4949 30.1694 13.3672 30.3183 13.2884 30.5051C13.2232 30.6622 13.2069 30.8085 13.3618 30.9303C13.5247 31.0576 13.5899 30.8923 13.6796 30.8246C14.7853 30.015 16.043 29.5845 17.3769 29.3435C18.2135 29.1918 19.0557 29.1377 19.8924 29.3435C20.2455 29.4301 20.5689 29.5791 20.8296 29.8363C21.5088 30.5024 21.3648 31.5071 20.5145 32.027C19.9304 32.3844 19.2758 32.5577 18.6102 32.6741C16.9857 32.9558 15.3666 32.9667 13.7665 32.5063C13.6388 32.4684 13.5981 32.5117 13.5628 32.6336C13.5057 32.8204 13.5492 32.9883 13.609 33.1535C13.6769 33.3403 13.791 33.5028 13.9187 33.6572C14.3288 34.15 14.3805 34.1527 14.9184 33.8521C16.0729 33.2076 17.2954 32.9017 18.6129 33.2104C19.1644 33.3403 19.6207 33.6355 19.8979 34.1473C20.2157 34.7349 20.0526 35.206 19.4387 35.4795C18.8927 35.7232 18.3059 35.7693 17.7191 35.7775C16.6325 35.7909 15.5785 35.6312 14.587 35.1709C14.4483 35.1059 14.3723 35.1384 14.2773 35.2277C13.9458 35.5337 13.7883 35.8939 13.9187 36.3461C13.9404 36.4219 13.9567 36.4977 13.9322 36.5763C13.4677 36.1023 13.3998 35.5798 13.7475 34.9705C13.8371 34.8135 13.8181 34.7539 13.6796 34.6455C13.0602 34.1445 12.5685 33.5623 12.5685 32.7094C12.5685 32.0676 12.5631 32.0758 12.2208 31.545C11.797 30.8896 11.9138 30.2398 12.3023 29.6196C12.726 28.9481 13.3862 28.5609 14.0816 28.2224C15.228 27.6673 16.4451 27.3044 17.6512 26.9172C19.6017 26.289 21.3539 25.3358 22.8046 23.879C24.4997 22.1756 25.4369 20.1312 25.4586 17.7158C25.4859 14.4581 23.4375 11.5742 20.3298 10.5533C17.5289 9.63537 14.8259 9.83845 12.3865 11.604C10.5637 12.9255 9.5694 14.7695 9.21353 16.9819C8.63489 20.578 11.0174 23.7191 13.4514 24.954C14.9238 25.7013 16.4152 25.6796 17.855 24.9106C19.8272 23.8545 20.9383 22.1837 21.1095 19.9524C21.1882 18.9478 20.797 18.0705 20.1124 17.334C19.6126 16.795 18.9334 16.6705 18.2597 16.9549C18.1022 17.0225 18.0858 17.074 18.1593 17.2283C18.4444 17.8241 18.5775 18.4414 18.3657 19.0968C18.0858 19.9578 17.3334 20.4426 16.551 20.2585C15.8366 20.0905 15.4182 19.4732 15.5242 18.7474C15.6273 18.038 15.967 17.4422 16.4315 16.9115C16.5537 16.7733 16.5646 16.6922 16.4206 16.5622C15.918 16.1073 15.3449 15.8446 14.6576 15.934C13.4731 16.0883 12.8293 17.12 13.1417 18.3223C13.3318 19.0535 13.7828 19.6059 14.3288 20.0987C14.7635 20.4913 15.2172 20.8623 15.6383 21.2685C16.0919 21.7045 16.4315 22.2109 16.3962 22.8824C16.3826 22.9014 16.3718 22.9365 16.3663 22.9718ZM15.0515 31.35C16.5701 31.4096 18.0669 31.323 19.5066 30.7651C17.9527 30.4212 16.4858 30.7489 15.0515 31.35ZM17.2465 17.6155C16.8634 17.9622 16.589 18.3521 16.4668 18.8368C16.4206 19.0209 16.437 19.1915 16.6298 19.2999C16.8118 19.4028 16.9884 19.4055 17.1595 19.2809C17.3198 19.1645 17.4067 19.002 17.4665 18.8205C17.6051 18.39 17.4502 18.0136 17.2465 17.6155ZM15.5079 34.5995C16.5945 34.8459 17.6132 34.8323 18.6427 34.5562C18.2678 34.0958 16.3907 34.1933 15.5079 34.5995Z" fill="#141820"/>
<path d="M54.54 15.7709C54.586 15.1264 54.6455 14.4792 54.678 13.8293C54.8494 10.4065 54.8764 6.98103 54.8656 3.55282C54.8656 3.36332 54.9197 3.23871 55.0694 3.12769C55.7215 2.64565 56.4276 2.68898 57.1013 3.00857C58.0221 3.44719 58.5524 4.19731 58.5606 5.24256C58.5714 6.35551 58.3865 7.45219 58.1908 8.54348C57.8733 10.3118 57.7723 12.099 57.6993 13.8889C57.601 16.2908 57.4927 18.6927 57.4035 21.0973C57.3187 23.3422 57.1888 25.587 57.1996 27.8345C57.2078 29.5676 57.2808 31.298 57.7263 32.9877C57.794 33.2449 57.8652 33.5076 57.9816 33.7432C58.0799 33.9436 58.0492 34.0817 57.9247 34.2469C57.5144 34.8075 56.9056 34.9862 56.2671 34.7072C55.7648 34.4879 55.3517 34.1521 55.0342 33.708C54.8737 33.486 54.7953 33.2476 54.7844 32.9634C54.7682 32.4543 54.7051 31.9452 54.6564 31.363C54.2298 31.8206 53.8528 32.2213 53.4316 32.5788C52.638 33.2558 51.7848 33.8461 50.7395 34.0303C48.6147 34.4039 46.1537 33.6647 44.8036 31.2194C44.1489 30.0334 43.8555 28.7499 43.8093 27.4094C43.6843 23.7131 44.4857 20.2037 46.0287 16.854C46.4277 15.9875 46.9526 15.1887 47.6696 14.5414C49.0089 13.3283 50.6061 13.1469 52.2114 13.9945C53.024 14.4223 53.6598 15.0668 54.3389 15.6599C54.3822 15.6977 54.4309 15.733 54.4769 15.7682C54.4769 15.7763 54.4913 15.7709 54.54 15.7709ZM54.4688 21.907C54.4913 21.1921 54.4498 20.4799 54.2622 19.7867C53.9908 18.7794 53.5777 17.8424 52.7498 17.1546C51.7172 16.2962 50.4239 16.4045 49.5437 17.4037C49.2533 17.7341 49.0089 18.097 48.8294 18.4923C47.528 21.3844 46.8381 24.4063 46.912 27.5827C46.9337 28.5305 47.1122 29.4512 47.5145 30.315C47.9194 31.1789 48.5119 31.8206 49.5491 31.8612C50.3562 31.8937 51.0462 31.6067 51.6333 31.0651C52.1898 30.5534 52.5866 29.9251 52.8932 29.2454C53.9502 26.9139 54.4174 24.4551 54.4688 21.907Z" fill="#141820"/>
<path d="M101.981 32.6439C100.935 33.3074 99.8707 33.7759 98.7073 34.0006C96.026 34.5233 93.6198 33.9465 91.6069 32.0861C90.2784 30.8568 90.172 29.0858 91.2398 27.6208C92.0957 26.4456 93.2798 25.6684 94.5406 24.9915C95.6653 24.3903 96.8629 24.0952 98.1481 24.1276C99.2836 24.1547 100.419 24.1195 101.552 24.1439C101.889 24.152 101.93 23.9895 101.932 23.7404C101.943 22.909 101.913 22.0778 101.831 21.2492C101.753 20.4476 101.634 19.6596 101.334 18.9068C100.832 17.6422 99.9194 16.9977 98.6558 17.033C97.8361 17.0546 97.1975 17.4689 96.6699 18.0484C95.6382 19.1776 94.9257 20.472 94.7336 22.0101C94.6948 22.3134 94.712 22.622 94.7057 22.9307C94.6949 23.448 94.3341 23.7512 93.8209 23.67C92.8992 23.5238 91.9892 22.4623 92.0984 21.5497C92.3563 19.3617 93.1418 17.3714 94.5596 15.6681C95.4073 14.6499 96.5644 14.2817 97.8875 14.3358C100.003 14.4252 101.796 15.243 103.291 16.708C104.388 17.7857 104.926 19.1072 104.928 20.6561C104.934 23.4588 104.969 26.2642 104.994 29.0669C105.008 30.613 105.029 32.1566 105.043 33.7028C105.048 34.2038 104.834 34.5016 104.35 34.6506C103.88 34.7968 103.412 34.7724 102.942 34.6234C102.456 34.4691 101.919 33.7894 101.981 33.2262C101.997 33.0529 101.981 32.8742 101.981 32.6439ZM97.0316 31.6123C98.553 31.5906 99.8427 31.0084 100.943 29.9848C101.476 29.492 101.788 28.8746 101.905 28.157C102.065 27.1713 101.71 26.5919 100.715 26.4293C98.9003 26.1342 97.156 26.3806 95.5237 27.2525C94.997 27.5342 94.5596 27.9295 94.3233 28.4874C93.8318 29.6544 94.0626 30.6889 95.2982 31.2548C95.8501 31.5094 96.4255 31.6231 97.0316 31.6123Z" fill="#141820"/>
<path d="M86.0333 32.6416C84.9871 33.3078 83.9193 33.7681 82.7595 34.0037C80.2631 34.5047 77.9922 33.9983 76.0036 32.4142C74.2729 31.0358 74.0745 28.9453 75.55 27.2989C76.9921 25.6878 78.7796 24.5992 80.9449 24.2011C81.2353 24.147 81.5402 24.1388 81.836 24.1388C83.0616 24.1334 84.2864 24.1361 85.5093 24.1361C85.9765 24.1361 85.9765 24.1361 85.9819 23.6514C85.9927 22.7497 85.9521 21.8479 85.8511 20.9543C85.7645 20.188 85.604 19.4352 85.3028 18.7149C84.5443 16.9168 82.3465 16.4402 80.9531 17.8212C79.5894 19.1725 78.7092 20.7729 78.766 22.7497C78.794 23.6297 78.1257 23.8517 77.471 23.5485C76.5005 23.1017 76.0171 22.2622 76.1831 21.1953C76.4789 19.2781 77.1905 17.518 78.3539 15.9609C79.2278 14.7884 80.4345 14.2793 81.9063 14.3389C83.9004 14.4175 85.6121 15.1513 87.0822 16.4673C88.3286 17.5857 88.9725 18.9748 88.9779 20.6619C88.986 23.5349 89.0185 26.408 89.0428 29.2811C89.0564 30.7461 89.0789 32.2138 89.0924 33.6788C89.0979 34.242 88.812 34.5832 88.2555 34.6969C87.7775 34.7944 87.2995 34.7863 86.8594 34.5615C86.3318 34.2934 86.0549 33.852 86.0387 33.259C86.0279 33.0694 86.0333 32.8826 86.0333 32.6416ZM81.0568 31.6126C82.6242 31.591 83.9446 30.9898 85.0611 29.9175C85.4759 29.5194 85.7456 29.0266 85.8917 28.4688C86.2101 27.2475 85.8268 26.5597 84.6129 26.3944C82.893 26.1589 81.2272 26.3891 79.6679 27.196C79.2034 27.437 78.7967 27.7538 78.5243 28.2088C77.9246 29.2025 77.8669 30.6188 79.3802 31.2742C79.9159 31.5043 80.4724 31.6207 81.0568 31.6126Z" fill="#141820"/>
<path d="M66.6305 34.1362C64.8457 34.1146 63.5497 33.8465 62.4359 32.9962C61.2923 32.1243 60.6971 30.9138 60.358 29.5598C59.9503 27.927 59.9179 26.2671 60.0703 24.6044C60.2931 22.1592 60.8522 19.7898 61.7838 17.5125C62.1184 16.6947 62.5369 15.9229 63.0934 15.2297C64.08 14.0057 65.3291 13.6293 66.8424 14.0274C68.3855 14.4335 69.6427 15.3136 70.8116 16.348C71.5799 17.0304 72.2563 17.7913 72.7181 18.7229C73.4134 20.1256 73.2917 21.5499 72.7641 22.9553C71.7405 25.693 68.6516 27.7943 65.7178 27.797C65.2912 27.797 64.9296 27.6183 64.5634 27.4477C64.1855 27.2744 63.8239 27.0632 63.4225 26.944C63.1863 26.8737 63.0988 26.9305 63.1096 27.1851C63.1529 28.1978 63.2404 29.2024 63.7021 30.1285C64.172 31.0763 64.9269 31.5502 66.0109 31.5583C67.4241 31.5665 68.5596 30.9815 69.5562 30.0473C70.1676 29.4733 70.6672 28.8071 71.1804 28.1517C71.2841 28.0191 71.4005 27.8945 71.5069 27.7672C71.8514 27.3556 72.2563 27.1255 72.8137 27.3258C73.3512 27.5181 73.6091 27.9162 73.6858 28.4605C73.84 29.5761 73.4549 30.5347 72.6802 31.2929C70.8927 33.0396 68.7463 34.0252 66.6305 34.1362ZM66.1714 25.1758C67.0084 25.1758 67.6712 24.9348 68.3007 24.3986C70.2055 22.7766 70.4418 19.6111 68.7959 17.7317C68.5073 17.4041 68.1682 17.1577 67.747 17.0304C66.7414 16.7271 65.7719 17.0684 65.0766 18.0431C64.0602 19.4648 63.5876 21.0733 63.6588 22.8117C63.7102 24.1983 64.7889 25.1758 66.1714 25.1758Z" fill="#141820"/>
<path d="M41.4943 16.2284C41.4318 17.2656 41.171 18.1917 40.9727 19.1314C40.8341 19.792 40.7445 20.4555 40.7445 21.1325C40.7526 24.1545 40.7553 27.1765 40.7445 30.1986C40.7418 31.1084 40.9184 31.9857 41.1302 32.8631C41.2498 33.3559 40.9346 33.8325 40.424 33.8596C39.0412 33.9273 37.7807 33.3559 37.7753 31.5308C37.7617 26.1123 37.7699 20.6938 37.7672 15.2725C37.7672 15.102 37.8187 15.0153 37.9682 14.9341C39.0955 14.3275 40.1333 14.5658 41.1384 15.2942C41.478 15.5325 41.5513 15.9035 41.4943 16.2284Z" fill="#141820"/>
<path d="M39.7861 7.00806C41.503 7.00806 42.682 8.48114 42.2582 10.1032C42.0599 10.8614 41.541 11.2432 40.6228 11.3055C39.4356 11.3868 38.1208 10.3821 37.9388 9.21499C37.7704 8.13458 38.1969 7.02163 39.7861 7.00806Z" fill="#141820"/>
<path d="M11.0832 0.980317C11.2815 0.991195 11.4935 1.10492 11.6184 1.34324C12.2052 2.48864 12.7268 3.65841 13.0609 4.90405C13.1017 5.05571 13.1071 5.21546 13.1342 5.37251C13.156 5.5052 13.1669 5.64059 13.0256 5.70837C12.8843 5.77607 12.7729 5.68122 12.6833 5.58917C12.504 5.40505 12.3111 5.22903 12.1644 5.01786C11.4908 4.06196 10.8904 3.06274 10.3932 2.00391C10.1515 1.49751 10.4774 0.972226 11.0832 0.980317Z" fill="#141820"/>
<path d="M3.20401 6.68911C3.35074 6.67832 3.48386 6.72705 3.59524 6.80831C4.89375 7.71809 6.20038 8.61987 7.36036 9.70576C7.46633 9.80591 7.67547 9.90884 7.57501 10.0822C7.46633 10.269 7.27072 10.139 7.12137 10.0822C5.61092 9.52426 4.21465 8.73629 2.81287 7.96181C2.53852 7.81024 2.44067 7.4555 2.54123 7.15218C2.63087 6.88141 2.90522 6.69181 3.20401 6.68911Z" fill="#141820"/>
<path d="M22.8215 0.969643C23.3268 0.969643 23.6827 1.46795 23.4571 1.92014C22.797 3.24157 22.0228 4.49539 21.0693 5.6327C20.9932 5.72206 20.9063 5.78706 20.7868 5.73285C20.6265 5.65976 20.6727 5.51628 20.6998 5.39438C20.9008 4.50618 21.2106 3.65052 21.5528 2.80834C21.7484 2.32361 21.9658 1.84706 22.183 1.37041C22.3053 1.10782 22.5227 0.966946 22.8215 0.969643Z" fill="#141820"/>
<path d="M29.9733 6.54805C30.3265 6.54805 30.5438 6.69701 30.6606 6.98136C30.7856 7.28998 30.7068 7.58791 30.4188 7.79639C30.082 8.0428 29.7343 8.27303 29.3838 8.49508C28.5281 9.03124 27.6887 9.59985 26.7678 10.0223C26.6863 10.0602 26.6047 10.0981 26.5206 10.1279C26.4309 10.1604 26.3304 10.2281 26.2543 10.1143C26.1891 10.0196 26.2353 9.92483 26.2924 9.84087C26.5043 9.54025 26.7542 9.26947 27.0177 9.01497C27.8001 8.25406 28.5988 7.50934 29.4327 6.80534C29.5985 6.66447 29.7696 6.52908 29.9733 6.54805Z" fill="#141820"/>
<path d="M30.0111 17.2794C29.9405 17.2767 29.8725 17.2713 29.8019 17.2686C29.7069 17.2686 29.6226 17.2496 29.5819 17.1522C29.5384 17.0465 29.5792 16.9599 29.6498 16.884C29.8291 16.6945 30.0355 16.5428 30.2665 16.4237C31.277 15.8984 32.312 15.4245 33.3906 15.0481C33.8823 14.8775 34.2897 15.1672 34.249 15.6465C34.2326 15.8361 34.1539 16.0067 33.98 16.0798C32.7032 16.6322 31.383 17.0438 30.0111 17.2794Z" fill="#141820"/>
<path d="M3.38637 16.8406C2.42741 16.7891 1.62601 16.7295 0.830023 16.6076C0.452501 16.5508 0.232444 16.3721 0.197091 16.0851C0.148209 15.6952 0.430673 15.3566 0.821904 15.3972C1.99821 15.5218 3.1554 15.7466 4.28824 16.0904C4.43768 16.1365 4.57079 16.2313 4.71203 16.3044C4.81529 16.3585 4.88861 16.4344 4.86417 16.5644C4.84244 16.6781 4.74738 16.7106 4.65223 16.7431C4.18497 16.9029 3.70419 16.8406 3.38637 16.8406Z" fill="#141820"/>
<path d="M15.0513 31.3496C16.4857 30.7484 17.9526 30.4207 19.5065 30.7647C18.0667 31.3198 16.5699 31.4092 15.0513 31.3496Z" fill="#141820"/>
<path d="M17.2464 17.615C17.4501 18.0104 17.6077 18.3868 17.4637 18.82C17.4039 19.0015 17.317 19.1666 17.1567 19.2804C16.9829 19.405 16.809 19.405 16.627 19.2993C16.4369 19.191 16.4178 19.0177 16.464 18.8363C16.5889 18.3515 16.8634 17.9616 17.2464 17.615Z" fill="#141820"/>
<path d="M15.5075 34.5993C16.3904 34.1931 18.2676 34.0982 18.6424 34.5559C17.6128 34.8321 16.5942 34.843 15.5075 34.5993Z" fill="#141820"/>
</svg>
